# xmcd CD database file
#
# Track frame offsets:
#	150
#	13125
#	23615
#	42895
#	60837
#	71210
#	80242
#	89335
#	99342
#	113765
#	129627
#	135527
#
# Disc length: 2334 seconds
#
# Revision: 1
# Processed by: cddbd v1.5.1PL0 Copyright (c) Steve Scherf et al.
# Submitted via: CDex 1.51
#
DISCID=99091c0c
DTITLE=CORCIOLLI - As Sete Tentações da Vida
DYEAR=2000
DGENRE=New Age
TTITLE0=Abertura
TTITLE1=Vaidade
TTITLE2=Competição
TTITLE3=Sedução
TTITLE4=Poder
TTITLE5=Ganância
TTITLE6=Arrogância
TTITLE7=Maledicência
TTITLE8=Mar do Tempo
TTITLE9=Príncipe das Ilusões
TTITLE10=A Revelação
TTITLE11=Verdade Eterna
EXTD=YEAR: 2000
EXTT0=
EXTT1=
EXTT2=
EXTT3=
EXTT4=
EXTT5=
EXTT6=
EXTT7=
EXTT8=
EXTT9=
EXTT10=
EXTT11=
PLAYORDER=
